<?xml version="1.0" standalone="no"?>
<!DOCTYPE svg PUBLIC "-//W3C//DTD SVG 20010904//EN"
 "http://www.w3.org/TR/2001/REC-SVG-20010904/DTD/svg10.dtd">
<svg version="1.0" xmlns="http://www.w3.org/2000/svg"
 width="1134.000000pt" height="1134.000000pt" viewBox="0 0 1134.000000 1134.000000"
 preserveAspectRatio="xMidYMid meet">
<metadata>
Created by potrace 1.14, written by Peter Selinger 2001-2017
</metadata>
<g transform="translate(0.000000,1134.000000) scale(0.100000,-0.100000)"
fill="#000000" stroke="none">
<path d="M5938 10315 c-2 -1 -61 -5 -133 -9 -135 -7 -183 -11 -300 -26 -38 -5
-90 -12 -115 -15 -335 -44 -825 -179 -1160 -320 -590 -249 -1098 -588 -1544
-1031 -88 -88 -194 -201 -246 -263 -25 -29 -50 -59 -55 -65 -67 -73 -248 -323
-342 -471 -351 -551 -560 -1110 -668 -1785 -41 -252 -56 -799 -30 -1067 64
-661 256 -1275 575 -1838 83 -146 269 -424 373 -558 646 -827 1544 -1416 2570
-1686 133 -35 370 -85 482 -101 44 -6 89 -13 101 -15 11 -2 52 -6 90 -10 38
-4 80 -9 94 -11 151 -24 824 -24 995 1 17 2 75 9 130 15 373 42 857 167 1137
293 40 18 93 42 118 52 145 63 387 197 555 308 78 52 331 240 345 256 3 3 41
37 85 75 217 189 467 460 622 676 177 246 321 556 358 769 3 19 8 37 10 40 9
16 20 159 19 271 0 134 -6 189 -30 284 -9 34 -18 73 -21 89 -3 15 -9 30 -14
33 -5 3 -9 12 -9 20 0 18 -80 184 -97 202 -7 7 -13 17 -13 22 0 17 -116 158
-184 224 -96 93 -212 175 -333 235 -55 28 -104 51 -108 51 -4 0 -21 6 -38 14
-59 27 -170 55 -322 82 -54 10 -357 11 -425 2 -198 -27 -385 -85 -570 -178
-52 -27 -112 -60 -133 -74 -21 -14 -40 -26 -44 -26 -3 0 -58 -39 -122 -87
-160 -120 -351 -315 -481 -492 -248 -339 -282 -381 -424 -523 -288 -288 -633
-495 -1018 -612 -103 -31 -215 -58 -298 -72 -14 -2 -34 -6 -45 -8 -11 -3 -47
-8 -80 -11 -33 -3 -76 -8 -95 -11 -19 -2 -92 -7 -162 -10 l-128 -5 -46 73
c-25 39 -56 89 -68 110 -11 21 -31 55 -43 76 -55 92 -156 294 -238 477 -40 90
-104 259 -152 405 -48 146 -142 504 -158 600 -5 33 -20 119 -29 165 -2 11 -7
43 -10 70 -4 28 -9 61 -11 75 -2 14 -6 48 -9 75 -4 28 -8 66 -11 85 -30 226
-27 817 5 1055 5 39 12 93 15 120 3 28 7 64 10 80 3 17 7 41 9 55 15 92 59
316 76 380 152 590 308 963 615 1468 6 10 19 30 29 45 l19 28 111 -6 c188 -9
241 -14 396 -41 457 -79 901 -297 1238 -608 92 -86 227 -228 271 -286 14 -19
29 -37 32 -40 3 -3 53 -70 109 -150 148 -206 208 -279 344 -415 239 -238 477
-389 765 -485 138 -47 235 -68 376 -85 58 -7 264 -7 315 0 19 2 58 7 85 11 71
9 228 50 310 81 298 113 556 332 697 593 63 116 118 284 135 408 10 75 10 291
0 367 -61 444 -318 887 -792 1360 -158 157 -190 187 -325 296 -302 245 -552
396 -980 592 -316 144 -892 282 -1300 312 -47 3 -107 8 -134 11 -48 6 -523 14
-528 9z"/>
</g>
</svg>
